# xmcd CD database file
#
# Track frame offsets:
#	150
#	26345
#	42970
#	63249
#	79125
#	103031
#	122558
#	137303
#	162967
#
# Disc length: 2460 seconds
#
# Revision: 0
# Processed by: cddbd v1.5.2PL0 Copyright (c) Steve Scherf et al.
# Submitted via: CDex 1.51
#
DISCID=67099a09
DTITLE=Dixie Brothers - Caravan
DYEAR=1900
DGENRE=Jazz
TTITLE0=Bourbon Street Parade
TTITLE1=St. Louis Blues
TTITLE2=Summertime
TTITLE3=Struttin' With Some Barbecue
TTITLE4=The Lady Is A Tramp
TTITLE5=Caravan
TTITLE6=Georgia On My Mind
TTITLE7=Don't Get Around Much Anymore
TTITLE8=On A Slow Boat To China
EXTD=
EXTT0=
EXTT1=
EXTT2=
EXTT3=
EXTT4=
EXTT5=
EXTT6=
EXTT7=
EXTT8=
PLAYORDER=
